<svg width="257" height="257" viewBox="0 0 257 257" fill="none" xmlns="http://www.w3.org/2000/svg">
<path d="M138.854 128.333C177.354 170.683 197.117 192.5 222.142 192.5C241.392 192.5 256.664 176.458 256.664 157.208C256.664 146.172 252.044 135.648 243.831 128.333C252.044 121.018 256.664 110.495 256.664 98.6883C256.664 79.4383 240.622 64.1667 221.372 64.1667C197.117 64.1667 177.354 85.9833 138.854 128.333ZM128.331 117.81C170.681 79.31 192.497 59.5467 192.497 34.5217C192.497 15.2717 176.456 -3.50602e-06 157.206 -4.34746e-06C146.169 -4.82989e-06 135.646 4.61999 128.331 12.8333C121.016 4.61999 110.492 -6.38937e-06 98.6857 -6.90545e-06C79.4357 -7.7469e-06 64.1641 16.0417 64.1641 35.2917C64.1641 59.5467 85.9807 79.31 128.331 117.81ZM128.331 138.985C85.9807 177.357 64.1641 197.12 64.1641 222.145C64.1641 241.395 80.2057 256.667 99.4557 256.667C110.492 256.667 121.016 252.047 128.331 243.833C135.646 252.047 146.169 256.667 157.976 256.667C177.226 256.667 192.497 240.625 192.497 221.375C192.497 197.12 170.681 177.357 128.331 138.985ZM117.807 128.333C79.3074 85.9833 59.5441 64.1667 34.5191 64.1667C15.2691 64.1667 -0.0025975 80.2083 -0.00259834 99.4583C-0.00259882 110.495 4.6174 121.018 12.8307 128.333C4.6174 135.648 -0.00260038 146.172 -0.0026009 157.978C-0.00260174 177.228 16.0391 192.5 35.2891 192.5C59.5441 192.5 79.3074 170.683 117.807 128.333Z" fill="#EC4899" fill-opacity="0.501961"/>
</svg>
